# Blender v3.1.2 OBJ File: 'IronGolem.blend'
# www.blender.org
mtllib IronGolem.mtl
o Left_Leg_Cube.001
v 0.093750 0.000000 0.156250
v 0.093750 1.000000 0.156250
v 0.093750 0.000000 -0.156250
v 0.093750 1.000000 -0.156250
v 0.468750 0.000000 0.156250
v 0.468750 1.000000 0.156250
v 0.468750 0.000000 -0.156250
v 0.468750 1.000000 -0.156250
vt 0.554688 0.835938
vt 0.554688 0.960938
vt 0.593750 0.960938
vt 0.593750 0.835938
vt 0.640625 0.960938
vt 0.640625 0.835938
vt 0.468750 0.835938
vt 0.468750 0.960938
vt 0.507812 0.960938
vt 0.507812 0.835938
vt 0.601562 1.000000
vt 0.554688 1.000000
vt 0.554688 0.960938
vt 0.601562 0.960938
vt 0.554688 0.960938
vt 0.554688 1.000000
vt 0.507812 1.000000
vn -1.0000 0.0000 0.0000
vn 0.0000 0.0000 -1.0000
vn 1.0000 0.0000 0.0000
vn 0.0000 0.0000 1.0000
vn 0.0000 -1.0000 0.0000
vn 0.0000 1.0000 0.0000
usemtl IronGolem
s off
f 1/1/1 2/2/1 4/3/1 3/4/1
f 3/4/2 4/3/2 8/5/2 7/6/2
f 7/7/3 8/8/3 6/9/3 5/10/3
f 5/10/4 6/9/4 2/2/4 1/1/4
f 3/11/5 7/12/5 5/13/5 1/14/5
f 8/15/6 4/16/6 2/17/6 6/9/6
o Right_Leg_Cube.002
v -0.468750 0.000000 0.156250
v -0.468750 1.000000 0.156250
v -0.468750 0.000000 -0.156250
v -0.468750 1.000000 -0.156250
v -0.093750 0.000000 0.156250
v -0.093750 1.000000 0.156250
v -0.093750 0.000000 -0.156250
v -0.093750 1.000000 -0.156250
vt 0.328125 0.835938
vt 0.328125 0.960938
vt 0.289062 0.960938
vt 0.289062 0.835938
vt 0.460938 0.835938
vt 0.460938 0.960938
vt 0.414062 0.960938
vt 0.414062 0.835938
vt 0.375000 0.960938
vt 0.375000 0.835938
vt 0.421875 1.000000
vt 0.375000 1.000000
vt 0.375000 0.960938
vt 0.421875 0.960938
vt 0.375000 1.000000
vt 0.328125 1.000000
vn -1.0000 0.0000 0.0000
vn 0.0000 0.0000 -1.0000
vn 1.0000 0.0000 0.0000
vn 0.0000 0.0000 1.0000
vn 0.0000 -1.0000 0.0000
vn 0.0000 1.0000 0.0000
usemtl IronGolem
s off
f 9/18/7 10/19/7 12/20/7 11/21/7
f 11/22/8 12/23/8 16/24/8 15/25/8
f 15/25/9 16/24/9 14/26/9 13/27/9
f 13/27/10 14/26/10 10/19/10 9/18/10
f 11/28/11 15/29/11 13/30/11 9/31/11
f 16/32/12 12/33/12 10/19/12 14/26/12
o Hips_Cube.004
v -0.312500 0.968750 0.225000
v -0.312500 1.343750 0.225000
v -0.312500 0.968750 -0.225000
v -0.312500 1.343750 -0.225000
v 0.312500 0.968750 0.225000
v 0.312500 1.343750 0.225000
v 0.312500 0.968750 -0.225000
v 0.312500 1.343750 -0.225000
vt 0.046875 0.367188
vt 0.046875 0.406250
vt 0.000000 0.406250
vt 0.000000 0.367188
vt 0.234375 0.367188
vt 0.234375 0.406250
vt 0.164062 0.406250
vt 0.164062 0.367188
vt 0.117188 0.406250
vt 0.117188 0.367188
vt 0.117188 0.453125
vt 0.187500 0.453125
vt 0.187500 0.406250
vt 0.117188 0.406250
vt 0.046975 0.406350
vt 0.117087 0.406350
vt 0.117087 0.453025
vt 0.046975 0.453025
vn -1.0000 0.0000 0.0000
vn 0.0000 0.0000 -1.0000
vn 1.0000 0.0000 0.0000
vn 0.0000 0.0000 1.0000
vn 0.0000 -1.0000 0.0000
vn 0.0000 1.0000 0.0000
usemtl IronGolem
s off
f 17/34/13 18/35/13 20/36/13 19/37/13
f 19/38/14 20/39/14 24/40/14 23/41/14
f 23/41/15 24/40/15 22/42/15 21/43/15
f 21/43/16 22/42/16 18/35/16 17/34/16
f 19/44/17 23/45/17 21/46/17 17/47/17
f 24/48/18 20/49/18 18/50/18 22/51/18
o Body_Cube.005
v -0.562500 1.312500 0.343750
v -0.562500 2.062500 0.343750
v -0.562500 1.312500 -0.343750
v -0.562500 2.062500 -0.343750
v 0.562500 1.312500 0.343750
v 0.562500 2.062500 0.343750
v 0.562500 1.312500 -0.343750
v 0.562500 2.062500 -0.343750
vt 0.085838 0.507913
vt 0.085837 0.601462
vt 0.000100 0.601462
vt 0.000100 0.507912
vt 0.453025 0.507913
vt 0.453025 0.601462
vt 0.312600 0.601462
vt 0.312600 0.507912
vt 0.312400 0.507913
vt 0.312400 0.601463
vt 0.226662 0.601462
vt 0.226662 0.507912
vt 0.226462 0.507913
vt 0.226462 0.601463
vt 0.086037 0.601462
vt 0.086037 0.507912
vt 0.226562 0.687500
vt 0.367188 0.687500
vt 0.367188 0.601562
vt 0.226562 0.601562
vt 0.226462 0.687400
vt 0.086038 0.687400
vt 0.086037 0.601663
vt 0.226462 0.601662
vn -1.0000 0.0000 0.0000
vn 0.0000 0.0000 -1.0000
vn 1.0000 0.0000 0.0000
vn 0.0000 0.0000 1.0000
vn 0.0000 -1.0000 0.0000
vn 0.0000 1.0000 0.0000
usemtl IronGolem
s off
f 25/52/19 26/53/19 28/54/19 27/55/19
f 27/56/20 28/57/20 32/58/20 31/59/20
f 31/60/21 32/61/21 30/62/21 29/63/21
f 29/64/22 30/65/22 26/66/22 25/67/22
f 27/68/23 31/69/23 29/70/23 25/71/23
f 32/72/24 28/73/24 26/74/24 30/75/24
o Head_Cube.006
v 0.250000 2.062500 -0.062500
v 0.250000 2.687500 -0.062500
v 0.250000 2.062500 0.437500
v 0.250000 2.687500 0.437500
v -0.250000 2.062500 -0.062500
v -0.250000 2.687500 -0.062500
v -0.250000 2.062500 0.437500
v -0.250000 2.687500 0.437500
vt 0.187400 0.859475
vt 0.187400 0.937400
vt 0.125100 0.937400
vt 0.125100 0.859475
vt 0.124900 0.859475
vt 0.124900 0.937400
vt 0.062600 0.937400
vt 0.062600 0.859475
vt 0.062400 0.859475
vt 0.062400 0.937400
vt 0.000100 0.937400
vt 0.000100 0.859475
vt 0.249900 0.859475
vt 0.249900 0.937400
vt 0.187600 0.937400
vt 0.187600 0.859475
vt 0.125100 0.937600
vt 0.187400 0.937600
vt 0.187400 0.999900
vt 0.125100 0.999900
vt 0.062600 0.937600
vt 0.124900 0.937600
vt 0.124900 0.999900
vt 0.062600 0.999900
vn 1.0000 0.0000 -0.0000
vn 0.0000 0.0000 1.0000
vn -1.0000 0.0000 0.0000
vn -0.0000 0.0000 -1.0000
vn 0.0000 -1.0000 0.0000
vn 0.0000 1.0000 0.0000
usemtl IronGolem
s off
f 33/76/25 34/77/25 36/78/25 35/79/25
f 35/80/26 36/81/26 40/82/26 39/83/26
f 39/84/27 40/85/27 38/86/27 37/87/27
f 37/88/28 38/89/28 34/90/28 33/91/28
f 35/92/29 39/93/29 37/94/29 33/95/29
f 40/96/30 36/97/30 34/98/30 38/99/30
o Nose_Cube.014
v -0.062500 2.000000 0.562500
v -0.062500 2.250000 0.562500
v -0.062500 2.000000 0.437500
v -0.062500 2.250000 0.437500
v 0.062500 2.000000 0.562500
v 0.062500 2.250000 0.562500
v 0.062500 2.000000 0.437500
v 0.062500 2.250000 0.437500
vt 0.203125 0.984375
vt 0.203125 0.953125
vt 0.187500 0.953125
vt 0.187500 0.984375
vt 0.234375 0.953125
vt 0.250000 0.953125
vt 0.250000 0.984375
vt 0.234375 0.984375
vt 0.234375 0.953125
vt 0.218750 0.953125
vt 0.218750 0.984375
vt 0.218750 0.953125
vt 0.218750 0.984375
vt 0.203125 0.984375
vt 0.203125 0.953125
vt 0.218750 0.984375
vt 0.234375 1.000000
vt 0.218750 1.000000
vt 0.203125 0.984375
vt 0.218750 0.984375
vt 0.218750 1.000000
vt 0.203125 1.000000
vn -1.0000 0.0000 0.0000
vn 0.0000 0.0000 -1.0000
vn 1.0000 0.0000 0.0000
vn 0.0000 0.0000 1.0000
vn 0.0000 -1.0000 0.0000
vn 0.0000 1.0000 0.0000
usemtl IronGolem
s off
f 41/100/31 42/101/31 44/102/31 43/103/31
f 43/104/32 44/105/32 48/106/32 47/107/32
f 47/107/33 48/108/33 46/109/33 45/110/33
f 45/111/34 46/112/34 42/113/34 41/114/34
f 43/115/35 47/107/35 45/116/35 41/117/35
f 48/118/36 44/119/36 42/120/36 46/121/36
o Left_Arm_Cube.015
v 0.812500 0.218750 -0.187500
v 0.812500 2.093750 -0.187500
v 0.812500 0.218750 0.187500
v 0.812500 2.093750 0.187500
v 0.562500 0.218750 -0.187500
v 0.562500 2.093750 -0.187500
v 0.562500 0.218750 0.187500
v 0.562500 2.093750 0.187500
vt 0.593750 0.265625
vt 0.593750 0.500000
vt 0.546875 0.500000
vt 0.546875 0.265625
vt 0.515625 0.500000
vt 0.515625 0.265625
vt 0.515525 0.265725
vt 0.515525 0.499900
vt 0.468850 0.499900
vt 0.468850 0.265725
vt 0.625000 0.265625
vt 0.625000 0.500000
vt 0.546875 0.500000
vt 0.578125 0.500000
vt 0.578125 0.546875
vt 0.546875 0.546875
vt 0.546875 0.546875
vt 0.515625 0.546875
vn 1.0000 0.0000 0.0000
vn 0.0000 0.0000 1.0000
vn -1.0000 0.0000 0.0000
vn -0.0000 0.0000 -1.0000
vn 0.0000 -1.0000 0.0000
vn 0.0000 1.0000 0.0000
usemtl IronGolem
s off
f 49/122/37 50/123/37 52/124/37 51/125/37
f 51/125/38 52/124/38 56/126/38 55/127/38
f 55/128/39 56/129/39 54/130/39 53/131/39
f 53/132/40 54/133/40 50/123/40 49/122/40
f 51/134/41 55/135/41 53/136/41 49/137/41
f 56/126/42 52/124/42 50/138/42 54/139/42
o Right_Arm_Cube.016
v -0.562500 0.218750 -0.187500
v -0.562500 2.093750 -0.187500
v -0.562500 0.218750 0.187500
v -0.562500 2.093750 0.187500
v -0.812500 0.218750 -0.187500
v -0.812500 2.093750 -0.187500
v -0.812500 0.218750 0.187500
v -0.812500 2.093750 0.187500
vt 0.593750 0.554688
vt 0.593750 0.789062
vt 0.546875 0.789062
vt 0.546875 0.554688
vt 0.515625 0.789062
vt 0.515625 0.554688
vt 0.515525 0.554788
vt 0.515525 0.788963
vt 0.468850 0.788962
vt 0.468850 0.554787
vt 0.625000 0.554688
vt 0.625000 0.789062
vt 0.546875 0.789062
vt 0.578125 0.789062
vt 0.578125 0.835938
vt 0.546875 0.835938
vt 0.546875 0.835938
vt 0.515625 0.835938
vn 1.0000 0.0000 0.0000
vn 0.0000 0.0000 1.0000
vn -1.0000 0.0000 0.0000
vn -0.0000 0.0000 -1.0000
vn 0.0000 -1.0000 0.0000
vn 0.0000 1.0000 0.0000
usemtl IronGolem
s off
f 57/140/43 58/141/43 60/142/43 59/143/43
f 59/143/44 60/142/44 64/144/44 63/145/44
f 63/146/45 64/147/45 62/148/45 61/149/45
f 61/150/46 62/151/46 58/141/46 57/140/46
f 59/152/47 63/153/47 61/154/47 57/155/47
f 64/144/48 60/142/48 58/156/48 62/157/48
