# Blender v3.1.2 OBJ File: 'IllagerBanner.blend'
# www.blender.org
mtllib IllagerBanner.mtl
o Cube_Cube.003
v 0.041667 0.000000 -0.083334
v 0.041667 1.750014 -0.083334
v 0.041667 0.000000 0.000000
v 0.041667 1.750014 0.000000
v -0.041667 0.000000 -0.083334
v -0.041667 1.750014 -0.083334
v -0.041667 0.000000 -0.000000
v -0.041667 1.750014 -0.000000
vt 0.781250 0.312500
vt 0.781250 0.968750
vt 0.750000 0.968750
vt 0.750000 0.312500
vt 0.718750 0.968750
vt 0.718750 0.312500
vt 0.687500 0.968750
vt 0.687500 0.312500
vt 0.812500 0.312500
vt 0.812500 0.968750
vt 0.750000 0.968750
vt 0.781250 0.968750
vt 0.781250 1.000000
vt 0.750000 1.000000
vt 0.625000 0.500000
vt 0.875000 0.500000
vt 0.875000 0.750000
vt 0.625000 0.750000
vn 1.0000 0.0000 0.0000
vn -0.0000 0.0000 1.0000
vn -1.0000 0.0000 -0.0000
vn 0.0000 0.0000 -1.0000
vn 0.0000 -1.0000 0.0000
vn 0.0000 1.0000 0.0000
usemtl Illager_Banner
s off
f 1/1/1 2/2/1 4/3/1 3/4/1
f 3/4/2 4/3/2 8/5/2 7/6/2
f 7/6/3 8/5/3 6/7/3 5/8/3
f 5/9/4 6/10/4 2/2/4 1/1/4
f 3/11/5 7/12/5 5/13/5 1/14/5
f 8/15/6 4/16/6 2/17/6 6/18/6
o Cube.001_Cube.004
v 0.416670 1.750014 -0.083334
v 0.416670 1.833348 -0.083334
v 0.416670 1.750014 0.000000
v 0.416670 1.833348 0.000000
v -0.416670 1.750014 -0.083334
v -0.416670 1.833348 -0.083334
v -0.416670 1.750014 -0.000000
v -0.416670 1.833348 -0.000000
vt 0.656250 0.312500
vt 0.656250 0.281250
vt 0.687500 0.281250
vt 0.687500 0.312500
vt 0.343750 0.281250
vt 0.343750 0.312500
vt 0.031250 0.312500
vt 0.031250 0.281250
vt 0.656250 0.281250
vt 0.687500 0.281250
vt 0.687500 0.312500
vt 0.656250 0.312500
vt 0.687500 0.281250
vt 0.375000 0.312500
vt 0.375000 0.281250
vt 0.656250 0.312500
vt 0.343750 0.312500
vt 0.343750 0.343750
vt 0.656250 0.343750
vt 0.343750 0.343750
vt 0.031250 0.343750
vn 1.0000 0.0000 0.0000
vn -0.0000 0.0000 1.0000
vn -1.0000 0.0000 0.0000
vn 0.0000 0.0000 -1.0000
vn 0.0000 -1.0000 0.0000
vn 0.0000 1.0000 0.0000
usemtl Illager_Banner
s off
f 9/19/7 10/20/7 12/21/7 11/22/7
f 11/23/8 12/24/8 16/25/8 15/26/8
f 15/27/9 16/28/9 14/29/9 13/30/9
f 13/31/10 14/29/10 10/32/10 9/33/10
f 11/34/11 15/35/11 13/36/11 9/37/11
f 16/25/12 12/24/12 10/38/12 14/39/12
o Cube.002_Cube.006
v 0.416670 0.166668 0.000000
v 0.416670 1.833348 0.000000
v 0.416670 0.166668 0.041667
v 0.416670 1.833348 0.041667
v -0.416670 0.166668 -0.000000
v -0.416670 1.833348 -0.000000
v -0.416670 0.166668 0.041667
v -0.416670 1.833348 0.041667
vt 0.328125 0.359375
vt 0.343750 0.359375
vt 0.343750 1.000000
vt 0.328125 1.000000
vt 0.328025 0.359475
vt 0.328025 0.984275
vt 0.015725 0.984275
vt 0.015725 0.359475
vt 0.000000 0.359375
vt 0.015625 0.359375
vt 0.015625 1.000000
vt 0.000000 1.000000
vt 0.656250 0.375000
vt 0.656250 0.984375
vt 0.343750 0.984375
vt 0.343750 0.375000
vt 0.015625 0.984375
vt 0.328125 0.984375
vt 0.328125 1.000000
vt 0.015625 1.000000
vt 0.015625 0.984375
vt 0.328125 0.984375
vt 0.328125 1.000000
vn 1.0000 0.0000 0.0000
vn -0.0000 0.0000 1.0000
vn -1.0000 0.0000 0.0000
vn 0.0000 0.0000 -1.0000
vn 0.0000 -1.0000 0.0000
vn 0.0000 1.0000 0.0000
usemtl Illager_Banner
s off
f 17/40/13 18/41/13 20/42/13 19/43/13
f 19/44/14 20/45/14 24/46/14 23/47/14
f 23/48/15 24/49/15 22/50/15 21/51/15
f 21/52/16 22/53/16 18/54/16 17/55/16
f 19/56/17 23/57/17 21/58/17 17/59/17
f 24/60/18 20/61/18 18/62/18 22/50/18
