# Blender v3.1.2 OBJ File: 'Steve Miner.blend'
# www.blender.org
mtllib Steve Miner.mtl
o Pickaxe_Plane
v -0.375774 0.869937 0.809971
v -0.375774 0.831539 0.783085
v -0.375774 0.793142 0.756198
v -0.375774 0.754744 0.729312
v -0.375774 0.716346 0.702425
v -0.375774 0.677948 0.675539
v -0.375774 1.012017 0.852233
v -0.375774 0.973619 0.825346
v -0.375774 0.935221 0.798460
v -0.375774 0.896823 0.771573
v -0.375774 0.858426 0.744687
v -0.375774 0.820028 0.717801
v -0.375774 0.781630 0.690914
v -0.375774 0.743232 0.664028
v -0.375774 0.704835 0.637141
v -0.375774 0.666437 0.610255
v -0.375774 1.038903 0.813835
v -0.375774 1.000505 0.786948
v -0.375774 0.962108 0.760062
v -0.375774 0.923710 0.733176
v -0.375774 0.885312 0.706289
v -0.375774 0.846914 0.679403
v -0.375774 0.808517 0.652516
v -0.375774 0.770119 0.625630
v -0.375774 0.731721 0.598744
v -0.375774 0.693323 0.571857
v -0.375774 1.065790 0.775437
v -0.375774 1.027392 0.748551
v -0.375774 0.988994 0.721664
v -0.375774 0.950596 0.694778
v -0.375774 0.912199 0.667891
v -0.375774 0.873801 0.641005
v -0.375774 0.835403 0.614119
v -0.375774 0.797005 0.587232
v -0.375774 0.758608 0.560346
v -0.375774 1.131074 0.763926
v -0.375774 1.092676 0.737039
v -0.375774 1.054278 0.710153
v -0.375774 1.015880 0.683267
v -0.375774 0.977483 0.656380
v -0.375774 0.939085 0.629494
v -0.375774 0.900687 0.602607
v -0.375774 1.157960 0.725528
v -0.375774 1.119562 0.698642
v -0.375774 1.081165 0.671755
v -0.375774 1.042767 0.644869
v -0.375774 1.004369 0.617982
v -0.375774 0.965971 0.591096
v -0.375774 0.927574 0.564210
v -0.375774 0.889176 0.537323
v -0.375774 1.184847 0.687130
v -0.375774 1.146449 0.660244
v -0.375774 1.108051 0.633357
v -0.375774 1.069653 0.606471
v -0.375774 1.031255 0.579585
v -0.375774 0.992858 0.552698
v -0.375774 0.954460 0.525812
v -0.375774 0.916062 0.498925
v -0.375774 0.877664 0.472039
v -0.375774 1.211733 0.648732
v -0.375774 1.173335 0.621846
v -0.375774 1.134937 0.594960
v -0.375774 1.096540 0.568073
v -0.375774 1.019744 0.514300
v -0.375774 0.981346 0.487414
v -0.375774 0.942949 0.460528
v -0.375774 0.904551 0.433641
v -0.375774 0.866153 0.406755
v -0.375774 1.238619 0.610335
v -0.375774 1.200222 0.583448
v -0.375774 1.161824 0.556562
v -0.375774 1.123426 0.529675
v -0.375774 1.008233 0.449016
v -0.375774 0.969835 0.422130
v -0.375774 0.931437 0.395243
v -0.375774 0.893040 0.368357
v -0.375774 0.854642 0.341471
v -0.375774 1.265506 0.571937
v -0.375774 1.227108 0.545051
v -0.375774 1.188710 0.518164
v -0.375774 1.150312 0.491278
v -0.375774 0.996721 0.383732
v -0.375774 0.958324 0.356846
v -0.375774 0.919926 0.329959
v -0.375774 0.881528 0.303073
v -0.375774 0.843130 0.276187
v -0.375774 1.253994 0.506653
v -0.375774 1.215597 0.479766
v -0.375774 0.985210 0.318448
v -0.375774 0.946812 0.291562
v -0.375774 0.908415 0.264675
v -0.375774 0.870017 0.237789
v -0.375774 0.831619 0.210902
v -0.375774 0.973699 0.253164
v -0.375774 0.935301 0.226277
v -0.375774 0.896903 0.199391
v -0.375774 0.858505 0.172505
v -0.375774 0.820108 0.145618
v -0.375774 0.962187 0.187880
v -0.375774 0.923790 0.160993
v -0.375774 0.885392 0.134107
v -0.375774 0.846994 0.107220
v -0.375774 0.950676 0.122596
v -0.375774 0.912278 0.095709
v -0.375774 0.873881 0.068823
v -0.328899 0.869937 0.809971
v -0.328899 0.831539 0.783085
v -0.328899 0.793142 0.756198
v -0.328899 0.754744 0.729312
v -0.328899 0.716346 0.702425
v -0.328899 0.677948 0.675539
v -0.328899 1.012017 0.852233
v -0.328899 0.973619 0.825346
v -0.328899 0.935221 0.798460
v -0.328899 0.896823 0.771573
v -0.328899 0.858426 0.744687
v -0.328899 0.820028 0.717801
v -0.328899 0.781630 0.690914
v -0.328899 0.743232 0.664028
v -0.328899 0.704835 0.637141
v -0.328899 0.666437 0.610255
v -0.328899 1.038903 0.813835
v -0.328899 1.000505 0.786948
v -0.328899 0.962108 0.760062
v -0.328899 0.923710 0.733176
v -0.328899 0.885312 0.706289
v -0.328899 0.846914 0.679403
v -0.328899 0.808517 0.652516
v -0.328899 0.770119 0.625630
v -0.328899 0.731721 0.598744
v -0.328899 0.693323 0.571857
v -0.328899 1.065790 0.775437
v -0.328899 1.027392 0.748551
v -0.328899 0.988994 0.721664
v -0.328899 0.950596 0.694778
v -0.328899 0.912199 0.667891
v -0.328899 0.873801 0.641005
v -0.328899 0.835403 0.614119
v -0.328899 0.797005 0.587232
v -0.328899 0.758608 0.560346
v -0.328899 1.131074 0.763926
v -0.328899 1.092676 0.737039
v -0.328899 1.054278 0.710153
v -0.328899 1.015880 0.683267
v -0.328899 0.977483 0.656380
v -0.328899 0.939085 0.629494
v -0.328899 0.900687 0.602607
v -0.328899 1.157960 0.725528
v -0.328899 1.119562 0.698642
v -0.328899 1.081165 0.671755
v -0.328899 1.042767 0.644869
v -0.328899 1.004369 0.617982
v -0.328899 0.965971 0.591096
v -0.328899 0.927574 0.564210
v -0.328899 0.889176 0.537323
v -0.328899 1.184846 0.687130
v -0.328899 1.146449 0.660244
v -0.328899 1.108051 0.633357
v -0.328899 1.069653 0.606471
v -0.328899 1.031255 0.579585
v -0.328899 0.992858 0.552698
v -0.328899 0.954460 0.525812
v -0.328899 0.916062 0.498925
v -0.328899 0.877664 0.472039
v -0.328899 1.211733 0.648732
v -0.328899 1.173335 0.621846
v -0.328899 1.134937 0.594960
v -0.328899 1.096540 0.568073
v -0.328899 1.019744 0.514300
v -0.328899 0.981346 0.487414
v -0.328899 0.942949 0.460528
v -0.328899 0.904551 0.433641
v -0.328899 0.866153 0.406755
v -0.328899 1.238619 0.610335
v -0.328899 1.200222 0.583448
v -0.328899 1.161824 0.556562
v -0.328899 1.123426 0.529675
v -0.328899 1.008233 0.449016
v -0.328899 0.969835 0.422130
v -0.328899 0.931437 0.395243
v -0.328899 0.893040 0.368357
v -0.328899 0.854642 0.341471
v -0.328899 1.265506 0.571937
v -0.328899 1.227108 0.545051
v -0.328899 1.188710 0.518164
v -0.328899 1.150312 0.491278
v -0.328899 0.996721 0.383732
v -0.328899 0.958324 0.356846
v -0.328899 0.919926 0.329959
v -0.328899 0.881528 0.303073
v -0.328899 0.843130 0.276187
v -0.328899 1.253994 0.506653
v -0.328899 1.215597 0.479766
v -0.328899 0.985210 0.318448
v -0.328899 0.946812 0.291562
v -0.328899 0.908415 0.264675
v -0.328899 0.870017 0.237789
v -0.328899 0.831619 0.210902
v -0.328899 0.973699 0.253164
v -0.328899 0.935301 0.226277
v -0.328899 0.896903 0.199391
v -0.328899 0.858505 0.172505
v -0.328899 0.820108 0.145618
v -0.328899 0.962187 0.187880
v -0.328899 0.923790 0.160993
v -0.328899 0.885392 0.134107
v -0.328899 0.846994 0.107220
v -0.328899 0.950676 0.122596
v -0.328899 0.912278 0.095709
v -0.328899 0.873881 0.068823
vt 0.187562 0.187563
vt 0.125075 0.187563
vt 0.125075 0.125075
vt 0.187562 0.125075
vt 0.125075 0.062588
vt 0.187562 0.062588
vt 0.250050 0.250050
vt 0.187562 0.250050
vt 0.250050 0.187563
vt 0.250050 0.125075
vt 0.250050 0.062588
vt 0.312537 0.312538
vt 0.250050 0.312538
vt 0.312537 0.250050
vt 0.312537 0.187563
vt 0.312537 0.125075
vt 0.375025 0.812437
vt 0.312538 0.812437
vt 0.312538 0.749950
vt 0.375025 0.749950
vt 0.375025 0.375025
vt 0.312537 0.375025
vt 0.375025 0.312538
vt 0.375025 0.250050
vt 0.375025 0.187563
vt 0.437513 0.874925
vt 0.375025 0.874925
vt 0.437513 0.812437
vt 0.437513 0.749950
vt 0.375025 0.687463
vt 0.437513 0.687463
vt 0.437512 0.437513
vt 0.375025 0.437513
vt 0.437512 0.375025
vt 0.437512 0.312538
vt 0.437512 0.250050
vt 0.500000 0.874925
vt 0.500000 0.812437
vt 0.500000 0.749950
vt 0.500000 0.687463
vt 0.500000 0.500000
vt 0.437512 0.500000
vt 0.500000 0.437513
vt 0.500000 0.375025
vt 0.500000 0.312538
vt 0.562487 0.874925
vt 0.562487 0.812437
vt 0.562487 0.749950
vt 0.562487 0.687462
vt 0.562487 0.562487
vt 0.500000 0.562488
vt 0.562487 0.500000
vt 0.562487 0.437513
vt 0.562487 0.375025
vt 0.624975 0.874925
vt 0.624975 0.812437
vt 0.624975 0.749950
vt 0.624975 0.687462
vt 0.624975 0.624975
vt 0.562487 0.624975
vt 0.624975 0.562487
vt 0.624975 0.500000
vt 0.624975 0.437513
vt 0.687462 0.874925
vt 0.687462 0.812437
vt 0.687462 0.749950
vt 0.687462 0.687462
vt 0.687462 0.624975
vt 0.687462 0.562487
vt 0.687462 0.500000
vt 0.749950 0.812437
vt 0.749950 0.749950
vt 0.749950 0.687462
vt 0.749950 0.624975
vt 0.749950 0.562487
vt 0.812437 0.812437
vt 0.812437 0.749950
vt 0.812437 0.687462
vt 0.812437 0.624975
vt 0.812437 0.562487
vt 0.749950 0.500000
vt 0.812437 0.500000
vt 0.749950 0.437512
vt 0.812437 0.437512
vt 0.749950 0.375025
vt 0.812437 0.375025
vt 0.749950 0.312537
vt 0.812437 0.312537
vt 0.874925 0.812437
vt 0.874925 0.749950
vt 0.874925 0.687462
vt 0.874925 0.624975
vt 0.874925 0.562487
vt 0.874925 0.500000
vt 0.874925 0.437512
vt 0.874925 0.375025
vt 0.874925 0.312537
vt 0.812437 0.250050
vt 0.874925 0.250050
vt 0.937412 0.624975
vt 0.937412 0.562487
vt 0.937412 0.500000
vt 0.937412 0.437512
vt 0.937412 0.375025
vt 0.937412 0.312537
vt 0.187562 0.187563
vt 0.187562 0.125075
vt 0.125075 0.125075
vt 0.125075 0.187563
vt 0.187562 0.062588
vt 0.125075 0.062588
vt 0.250050 0.250050
vt 0.250050 0.187563
vt 0.187562 0.250050
vt 0.250050 0.125075
vt 0.250050 0.062588
vt 0.312537 0.312538
vt 0.312537 0.250050
vt 0.250050 0.312538
vt 0.312537 0.187563
vt 0.312537 0.125075
vt 0.375025 0.812437
vt 0.375025 0.749950
vt 0.312538 0.749950
vt 0.312538 0.812437
vt 0.375025 0.375025
vt 0.375025 0.312538
vt 0.312537 0.375025
vt 0.375025 0.250050
vt 0.375025 0.187563
vt 0.437513 0.874925
vt 0.437513 0.812437
vt 0.375025 0.874925
vt 0.437513 0.749950
vt 0.437513 0.687463
vt 0.375025 0.687463
vt 0.437512 0.437513
vt 0.437512 0.375025
vt 0.375025 0.437513
vt 0.437512 0.312538
vt 0.437512 0.250050
vt 0.500000 0.874925
vt 0.500000 0.812437
vt 0.500000 0.749950
vt 0.500000 0.687463
vt 0.500000 0.500000
vt 0.500000 0.437513
vt 0.437512 0.500000
vt 0.500000 0.375025
vt 0.500000 0.312538
vt 0.562487 0.874925
vt 0.562487 0.812437
vt 0.562487 0.749950
vt 0.562487 0.687462
vt 0.562487 0.562487
vt 0.562487 0.500000
vt 0.500000 0.562488
vt 0.562487 0.437513
vt 0.562487 0.375025
vt 0.624975 0.874925
vt 0.624975 0.812437
vt 0.624975 0.749950
vt 0.624975 0.687462
vt 0.624975 0.624975
vt 0.624975 0.562487
vt 0.562487 0.624975
vt 0.624975 0.500000
vt 0.624975 0.437513
vt 0.687462 0.874925
vt 0.687462 0.812437
vt 0.687462 0.749950
vt 0.687462 0.687462
vt 0.687462 0.624975
vt 0.687462 0.562487
vt 0.687462 0.500000
vt 0.749950 0.812437
vt 0.749950 0.749950
vt 0.749950 0.687462
vt 0.749950 0.624975
vt 0.749950 0.562487
vt 0.812437 0.812437
vt 0.812437 0.749950
vt 0.812437 0.687462
vt 0.812437 0.624975
vt 0.812437 0.562487
vt 0.812437 0.500000
vt 0.749950 0.500000
vt 0.812437 0.437512
vt 0.749950 0.437512
vt 0.812437 0.375025
vt 0.749950 0.375025
vt 0.812437 0.312537
vt 0.749950 0.312537
vt 0.874925 0.812437
vt 0.874925 0.749950
vt 0.874925 0.687462
vt 0.874925 0.624975
vt 0.874925 0.562487
vt 0.874925 0.500000
vt 0.874925 0.437512
vt 0.874925 0.375025
vt 0.874925 0.312537
vt 0.874925 0.250050
vt 0.812437 0.250050
vt 0.937412 0.624975
vt 0.937412 0.562487
vt 0.937412 0.500000
vt 0.937412 0.437512
vt 0.937412 0.375025
vt 0.937412 0.312537
vn -1.0000 0.0000 0.0000
vn 1.0000 0.0000 0.0000
vn 0.0000 -0.5736 0.8192
vn 0.0000 0.5736 -0.8192
vn 0.0000 0.8192 0.5736
vn 0.0000 -0.8192 -0.5736
g Pickaxe_Plane_Material
usemtl Material
s off
f 100/1/1 103/2/1 104/3/1 101/4/1
f 101/4/1 104/3/1 105/5/1 102/6/1
f 95/7/1 99/8/1 100/1/1 96/9/1
f 96/9/1 100/1/1 101/4/1 97/10/1
f 97/10/1 101/4/1 102/6/1 98/11/1
f 90/12/1 94/13/1 95/7/1 91/14/1
f 91/14/1 95/7/1 96/9/1 92/15/1
f 92/15/1 96/9/1 97/10/1 93/16/1
f 79/17/1 87/18/1 88/19/1 80/20/1
f 83/21/1 89/22/1 90/12/1 84/23/1
f 84/23/1 90/12/1 91/14/1 85/24/1
f 85/24/1 91/14/1 92/15/1 86/25/1
f 69/26/1 78/27/1 79/17/1 70/28/1
f 70/28/1 79/17/1 80/20/1 71/29/1
f 71/29/1 80/20/1 81/30/1 72/31/1
f 74/32/1 82/33/1 83/21/1 75/34/1
f 75/34/1 83/21/1 84/23/1 76/35/1
f 76/35/1 84/23/1 85/24/1 77/36/1
f 60/37/1 69/26/1 70/28/1 61/38/1
f 61/38/1 70/28/1 71/29/1 62/39/1
f 62/39/1 71/29/1 72/31/1 63/40/1
f 65/41/1 73/42/1 74/32/1 66/43/1
f 66/43/1 74/32/1 75/34/1 67/44/1
f 67/44/1 75/34/1 76/35/1 68/45/1
f 51/46/1 60/37/1 61/38/1 52/47/1
f 52/47/1 61/38/1 62/39/1 53/48/1
f 53/48/1 62/39/1 63/40/1 54/49/1
f 56/50/1 64/51/1 65/41/1 57/52/1
f 57/52/1 65/41/1 66/43/1 58/53/1
f 58/53/1 66/43/1 67/44/1 59/54/1
f 43/55/1 51/46/1 52/47/1 44/56/1
f 44/56/1 52/47/1 53/48/1 45/57/1
f 45/57/1 53/48/1 54/49/1 46/58/1
f 47/59/1 55/60/1 56/50/1 48/61/1
f 48/61/1 56/50/1 57/52/1 49/62/1
f 49/62/1 57/52/1 58/53/1 50/63/1
f 36/64/1 43/55/1 44/56/1 37/65/1
f 37/65/1 44/56/1 45/57/1 38/66/1
f 38/66/1 45/57/1 46/58/1 39/67/1
f 39/67/1 46/58/1 47/59/1 40/68/1
f 40/68/1 47/59/1 48/61/1 41/69/1
f 41/69/1 48/61/1 49/62/1 42/70/1
f 27/71/1 37/65/1 38/66/1 28/72/1
f 28/72/1 38/66/1 39/67/1 29/73/1
f 29/73/1 39/67/1 40/68/1 30/74/1
f 30/74/1 40/68/1 41/69/1 31/75/1
f 17/76/1 27/71/1 28/72/1 18/77/1
f 18/77/1 28/72/1 29/73/1 19/78/1
f 19/78/1 29/73/1 30/74/1 20/79/1
f 20/79/1 30/74/1 31/75/1 21/80/1
f 21/80/1 31/75/1 32/81/1 22/82/1
f 22/82/1 32/81/1 33/83/1 23/84/1
f 23/84/1 33/83/1 34/85/1 24/86/1
f 24/86/1 34/85/1 35/87/1 25/88/1
f 7/89/1 17/76/1 18/77/1 8/90/1
f 8/90/1 18/77/1 19/78/1 9/91/1
f 9/91/1 19/78/1 20/79/1 10/92/1
f 10/92/1 20/79/1 21/80/1 11/93/1
f 11/93/1 21/80/1 22/82/1 12/94/1
f 12/94/1 22/82/1 23/84/1 13/95/1
f 13/95/1 23/84/1 24/86/1 14/96/1
f 14/96/1 24/86/1 25/88/1 15/97/1
f 15/97/1 25/88/1 26/98/1 16/99/1
f 1/100/1 10/92/1 11/93/1 2/101/1
f 2/101/1 11/93/1 12/94/1 3/102/1
f 3/102/1 12/94/1 13/95/1 4/103/1
f 4/103/1 13/95/1 14/96/1 5/104/1
f 5/104/1 14/96/1 15/97/1 6/105/1
f 205/106/2 206/107/2 209/108/2 208/109/2
f 206/107/2 207/110/2 210/111/2 209/108/2
f 200/112/2 201/113/2 205/106/2 204/114/2
f 201/113/2 202/115/2 206/107/2 205/106/2
f 202/115/2 203/116/2 207/110/2 206/107/2
f 195/117/2 196/118/2 200/112/2 199/119/2
f 196/118/2 197/120/2 201/113/2 200/112/2
f 197/120/2 198/121/2 202/115/2 201/113/2
f 184/122/2 185/123/2 193/124/2 192/125/2
f 188/126/2 189/127/2 195/117/2 194/128/2
f 189/127/2 190/129/2 196/118/2 195/117/2
f 190/129/2 191/130/2 197/120/2 196/118/2
f 174/131/2 175/132/2 184/122/2 183/133/2
f 175/132/2 176/134/2 185/123/2 184/122/2
f 176/134/2 177/135/2 186/136/2 185/123/2
f 179/137/2 180/138/2 188/126/2 187/139/2
f 180/138/2 181/140/2 189/127/2 188/126/2
f 181/140/2 182/141/2 190/129/2 189/127/2
f 165/142/2 166/143/2 175/132/2 174/131/2
f 166/143/2 167/144/2 176/134/2 175/132/2
f 167/144/2 168/145/2 177/135/2 176/134/2
f 170/146/2 171/147/2 179/137/2 178/148/2
f 171/147/2 172/149/2 180/138/2 179/137/2
f 172/149/2 173/150/2 181/140/2 180/138/2
f 156/151/2 157/152/2 166/143/2 165/142/2
f 157/152/2 158/153/2 167/144/2 166/143/2
f 158/153/2 159/154/2 168/145/2 167/144/2
f 161/155/2 162/156/2 170/146/2 169/157/2
f 162/156/2 163/158/2 171/147/2 170/146/2
f 163/158/2 164/159/2 172/149/2 171/147/2
f 148/160/2 149/161/2 157/152/2 156/151/2
f 149/161/2 150/162/2 158/153/2 157/152/2
f 150/162/2 151/163/2 159/154/2 158/153/2
f 152/164/2 153/165/2 161/155/2 160/166/2
f 153/165/2 154/167/2 162/156/2 161/155/2
f 154/167/2 155/168/2 163/158/2 162/156/2
f 141/169/2 142/170/2 149/161/2 148/160/2
f 142/170/2 143/171/2 150/162/2 149/161/2
f 143/171/2 144/172/2 151/163/2 150/162/2
f 144/172/2 145/173/2 152/164/2 151/163/2
f 145/173/2 146/174/2 153/165/2 152/164/2
f 146/174/2 147/175/2 154/167/2 153/165/2
f 132/176/2 133/177/2 143/171/2 142/170/2
f 133/177/2 134/178/2 144/172/2 143/171/2
f 134/178/2 135/179/2 145/173/2 144/172/2
f 135/179/2 136/180/2 146/174/2 145/173/2
f 122/181/2 123/182/2 133/177/2 132/176/2
f 123/182/2 124/183/2 134/178/2 133/177/2
f 124/183/2 125/184/2 135/179/2 134/178/2
f 125/184/2 126/185/2 136/180/2 135/179/2
f 126/185/2 127/186/2 137/187/2 136/180/2
f 127/186/2 128/188/2 138/189/2 137/187/2
f 128/188/2 129/190/2 139/191/2 138/189/2
f 129/190/2 130/192/2 140/193/2 139/191/2
f 112/194/2 113/195/2 123/182/2 122/181/2
f 113/195/2 114/196/2 124/183/2 123/182/2
f 114/196/2 115/197/2 125/184/2 124/183/2
f 115/197/2 116/198/2 126/185/2 125/184/2
f 116/198/2 117/199/2 127/186/2 126/185/2
f 117/199/2 118/200/2 128/188/2 127/186/2
f 118/200/2 119/201/2 129/190/2 128/188/2
f 119/201/2 120/202/2 130/192/2 129/190/2
f 120/202/2 121/203/2 131/204/2 130/192/2
f 106/205/2 107/206/2 116/198/2 115/197/2
f 107/206/2 108/207/2 117/199/2 116/198/2
f 108/207/2 109/208/2 118/200/2 117/199/2
f 109/208/2 110/209/2 119/201/2 118/200/2
f 110/209/2 111/210/2 120/202/2 119/201/2
f 1/100/3 2/101/3 107/206/3 106/205/3
f 2/101/3 3/102/3 108/207/3 107/206/3
f 3/102/3 4/103/3 109/208/3 108/207/3
f 4/103/3 5/104/3 110/209/3 109/208/3
f 5/104/3 6/105/3 111/210/3 110/209/3
f 7/89/3 8/90/3 113/195/3 112/194/3
f 8/90/3 9/91/3 114/196/3 113/195/3
f 9/91/3 10/92/3 115/197/3 114/196/3
f 15/97/3 16/99/3 121/203/3 120/202/3
f 26/98/4 25/88/4 130/192/4 131/204/4
f 32/81/4 31/75/4 136/180/4 137/187/4
f 33/83/4 32/81/4 137/187/4 138/189/4
f 34/85/4 33/83/4 138/189/4 139/191/4
f 35/87/4 34/85/4 139/191/4 140/193/4
f 36/64/3 37/65/3 142/170/3 141/169/3
f 41/69/3 42/70/3 147/175/3 146/174/3
f 47/59/4 46/58/4 151/163/4 152/164/4
f 49/62/3 50/63/3 155/168/3 154/167/3
f 56/50/4 55/60/4 160/166/4 161/155/4
f 58/53/3 59/54/3 164/159/3 163/158/3
f 65/41/4 64/51/4 169/157/4 170/146/4
f 67/44/3 68/45/3 173/150/3 172/149/3
f 74/32/4 73/42/4 178/148/4 179/137/4
f 76/35/3 77/36/3 182/141/3 181/140/3
f 79/17/4 78/27/4 183/133/4 184/122/4
f 81/30/4 80/20/4 185/123/4 186/136/4
f 83/21/4 82/33/4 187/139/4 188/126/4
f 85/24/3 86/25/3 191/130/3 190/129/3
f 88/19/4 87/18/4 192/125/4 193/124/4
f 90/12/4 89/22/4 194/128/4 195/117/4
f 92/15/3 93/16/3 198/121/3 197/120/3
f 95/7/4 94/13/4 199/119/4 200/112/4
f 97/10/3 98/11/3 203/116/3 202/115/3
f 100/1/4 99/8/4 204/114/4 205/106/4
f 104/3/4 103/2/4 208/109/4 209/108/4
f 105/5/4 104/3/4 209/108/4 210/111/4
f 103/2/5 100/1/5 205/106/5 208/109/5
f 102/6/6 105/5/6 210/111/6 207/110/6
f 99/8/5 95/7/5 200/112/5 204/114/5
f 98/11/6 102/6/6 207/110/6 203/116/6
f 94/13/5 90/12/5 195/117/5 199/119/5
f 93/16/6 97/10/6 202/115/6 198/121/6
f 87/18/5 79/17/5 184/122/5 192/125/5
f 80/20/6 88/19/6 193/124/6 185/123/6
f 89/22/5 83/21/5 188/126/5 194/128/5
f 86/25/6 92/15/6 197/120/6 191/130/6
f 78/27/5 69/26/5 174/131/5 183/133/5
f 72/31/6 81/30/6 186/136/6 177/135/6
f 82/33/5 74/32/5 179/137/5 187/139/5
f 77/36/6 85/24/6 190/129/6 182/141/6
f 69/26/5 60/37/5 165/142/5 174/131/5
f 63/40/6 72/31/6 177/135/6 168/145/6
f 73/42/5 65/41/5 170/146/5 178/148/5
f 68/45/6 76/35/6 181/140/6 173/150/6
f 60/37/5 51/46/5 156/151/5 165/142/5
f 54/49/6 63/40/6 168/145/6 159/154/6
f 64/51/5 56/50/5 161/155/5 169/157/5
f 59/54/6 67/44/6 172/149/6 164/159/6
f 51/46/5 43/55/5 148/160/5 156/151/5
f 46/58/6 54/49/6 159/154/6 151/163/6
f 55/60/5 47/59/5 152/164/5 160/166/5
f 50/63/6 58/53/6 163/158/6 155/168/6
f 43/55/5 36/64/5 141/169/5 148/160/5
f 42/70/6 49/62/6 154/167/6 147/175/6
f 37/65/5 27/71/5 132/176/5 142/170/5
f 31/75/6 41/69/6 146/174/6 136/180/6
f 27/71/5 17/76/5 122/181/5 132/176/5
f 25/88/6 35/87/6 140/193/6 130/192/6
f 17/76/5 7/89/5 112/194/5 122/181/5
f 16/99/6 26/98/6 131/204/6 121/203/6
f 10/92/5 1/100/5 106/205/5 115/197/5
f 6/105/6 15/97/6 120/202/6 111/210/6
o Body_Cube.013
v -0.234952 0.704852 0.117476
v -0.234952 1.409708 0.117476
v -0.234952 0.704852 -0.117476
v -0.234952 1.409708 -0.117476
v 0.234952 0.704852 0.117476
v 0.234952 1.409708 0.117476
v 0.234952 0.704852 -0.117476
v 0.234952 1.409708 -0.117476
v 0.000000 0.000000 0.117476
v 0.000000 0.704856 0.117476
v 0.000000 0.000000 -0.117476
v 0.000000 0.704856 -0.117476
v 0.234952 0.000000 0.117476
v 0.234952 0.704856 0.117476
v 0.234952 0.000000 -0.117476
v 0.234952 0.704856 -0.117476
v -0.234952 0.000000 0.117476
v -0.234952 0.704856 0.117476
v -0.234952 0.000000 -0.117476
v -0.234952 0.704856 -0.117476
v 0.000000 0.000000 0.117476
v 0.000000 0.704856 0.117476
v 0.000000 0.000000 -0.117476
v 0.000000 0.704856 -0.117476
v 0.234952 0.704852 0.117476
v 0.234952 1.409708 0.117476
v 0.234952 0.704852 -0.117476
v 0.234952 1.409708 -0.117476
v 0.469904 0.704852 0.117476
v 0.469904 1.409708 0.117476
v 0.469904 0.704852 -0.117476
v 0.469904 1.409708 -0.117476
v -0.469904 0.777610 0.311716
v -0.469904 1.438316 0.066177
v -0.469904 0.695763 0.091481
v -0.469904 1.356470 -0.154058
v -0.234952 0.777610 0.311716
v -0.234952 1.438316 0.066177
v -0.234952 0.695763 0.091481
v -0.234952 1.356470 -0.154058
v -0.234952 1.409712 0.234952
v -0.234952 1.879616 0.234952
v -0.234952 1.409712 -0.234952
v -0.234952 1.879616 -0.234952
v 0.234952 1.409712 0.234952
v 0.234952 1.879616 0.234952
v 0.234952 1.409712 -0.234952
v 0.234952 1.879616 -0.234952
vt 0.312400 0.500100
vt 0.312400 0.687400
vt 0.250100 0.687400
vt 0.250100 0.500100
vt 0.625000 0.500000
vt 0.625000 0.687500
vt 0.500000 0.687500
vt 0.500000 0.500000
vt 0.437500 0.687500
vt 0.437500 0.500000
vt 0.312500 0.687500
vt 0.312500 0.500000
vt 0.437500 0.750000
vt 0.562500 0.750000
vt 0.562500 0.687500
vt 0.437500 0.687500
vt 0.437500 0.750000
vt 0.312500 0.750000
vt 0.312400 0.000100
vt 0.312400 0.187400
vt 0.250100 0.187400
vt 0.250100 0.000100
vt 0.500000 -0.000000
vt 0.500000 0.187500
vt 0.437500 0.187500
vt 0.437500 0.000000
vt 0.375000 0.187500
vt 0.375000 0.000000
vt 0.312500 0.187500
vt 0.312500 0.000000
vt 0.375000 0.250000
vt 0.437500 0.250000
vt 0.437500 0.187500
vt 0.375000 0.187500
vt 0.375000 0.250000
vt 0.312500 0.250000
vt 0.062400 0.500100
vt 0.062400 0.687400
vt 0.000100 0.687400
vt 0.000100 0.500100
vt 0.250000 0.500000
vt 0.250000 0.687500
vt 0.187500 0.687500
vt 0.187500 0.500000
vt 0.125000 0.687500
vt 0.125000 0.500000
vt 0.062500 0.687500
vt 0.062500 0.500000
vt 0.125000 0.750000
vt 0.187500 0.750000
vt 0.187500 0.687500
vt 0.125000 0.687500
vt 0.125000 0.750000
vt 0.062500 0.750000
vt 0.562400 0.000100
vt 0.562400 0.187400
vt 0.500100 0.187400
vt 0.500100 0.000100
vt 0.750000 -0.000000
vt 0.750000 0.187500
vt 0.687500 0.187500
vt 0.687500 0.000000
vt 0.625000 0.187500
vt 0.625000 0.000000
vt 0.562500 0.187500
vt 0.562500 0.000000
vt 0.625000 0.250000
vt 0.687500 0.250000
vt 0.687500 0.187500
vt 0.625000 0.187500
vt 0.625000 0.250000
vt 0.562500 0.250000
vt 0.687400 0.500100
vt 0.687400 0.687400
vt 0.625100 0.687400
vt 0.625100 0.500100
vt 0.875000 0.500000
vt 0.875000 0.687500
vt 0.812500 0.687500
vt 0.812500 0.500000
vt 0.750000 0.687500
vt 0.750000 0.500000
vt 0.687500 0.687500
vt 0.687500 0.500000
vt 0.750000 0.750000
vt 0.812500 0.750000
vt 0.812500 0.687500
vt 0.750000 0.687500
vt 0.750000 0.750000
vt 0.687500 0.750000
vt 0.125000 0.750000
vt 0.125000 0.875000
vt 0.000000 0.875000
vt -0.000000 0.750000
vt 0.500000 0.750000
vt 0.500000 0.875000
vt 0.375000 0.875000
vt 0.375000 0.750000
vt 0.250000 0.875000
vt 0.250000 0.750000
vt 0.375000 1.000000
vt 0.250000 1.000000
vt 0.250000 0.875000
vt 0.375000 0.875000
vt 0.250000 1.000000
vt 0.125000 1.000000
vn -1.0000 0.0000 0.0000
vn 0.0000 0.0000 -1.0000
vn 1.0000 0.0000 0.0000
vn 0.0000 0.0000 1.0000
vn 0.0000 -1.0000 0.0000
vn 0.0000 1.0000 0.0000
vn 0.0000 -0.3484 -0.9374
vn 0.0000 0.3484 0.9374
vn 0.0000 -0.9374 0.3484
vn 0.0000 0.9374 -0.3484
g Body_Cube.013_Miner
usemtl Miner
s off
f 211/211/7 212/212/7 214/213/7 213/214/7
f 213/215/8 214/216/8 218/217/8 217/218/8
f 217/218/9 218/217/9 216/219/9 215/220/9
f 215/220/10 216/219/10 212/221/10 211/222/10
f 213/223/11 217/224/11 215/225/11 211/226/11
f 218/227/12 214/228/12 212/221/12 216/219/12
f 219/229/7 220/230/7 222/231/7 221/232/7
f 221/233/8 222/234/8 226/235/8 225/236/8
f 225/236/9 226/235/9 224/237/9 223/238/9
f 223/238/10 224/237/10 220/239/10 219/240/10
f 221/241/11 225/242/11 223/243/11 219/244/11
f 226/245/12 222/246/12 220/239/12 224/237/12
f 227/247/7 228/248/7 230/249/7 229/250/7
f 229/251/8 230/252/8 234/253/8 233/254/8
f 233/254/9 234/253/9 232/255/9 231/256/9
f 231/256/10 232/255/10 228/257/10 227/258/10
f 229/259/11 233/260/11 231/261/11 227/262/11
f 234/263/12 230/264/12 228/257/12 232/255/12
f 235/265/7 236/266/7 238/267/7 237/268/7
f 237/269/8 238/270/8 242/271/8 241/272/8
f 241/272/9 242/271/9 240/273/9 239/274/9
f 239/274/10 240/273/10 236/275/10 235/276/10
f 237/277/11 241/278/11 239/279/11 235/280/11
f 242/281/12 238/282/12 236/275/12 240/273/12
f 243/283/7 244/284/7 246/285/7 245/286/7
f 245/287/13 246/288/13 250/289/13 249/290/13
f 249/290/9 250/289/9 248/291/9 247/292/9
f 247/292/14 248/291/14 244/293/14 243/294/14
f 245/295/15 249/296/15 247/297/15 243/298/15
f 250/299/16 246/300/16 244/293/16 248/291/16
f 251/301/7 252/302/7 254/303/7 253/304/7
f 253/305/8 254/306/8 258/307/8 257/308/8
f 257/308/9 258/307/9 256/309/9 255/310/9
f 255/310/10 256/309/10 252/302/10 251/301/10
f 253/311/11 257/312/11 255/313/11 251/314/11
f 258/315/12 254/316/12 252/302/12 256/309/12
