# Blender v3.1.2 OBJ File: 'babyZombie.blend'
# www.blender.org
mtllib babyZombie.mtl
o Body_Cube.048
v -0.125000 0.375000 0.062500
v -0.125000 0.750000 0.062500
v -0.125000 0.375000 -0.062500
v -0.125000 0.750000 -0.062500
v 0.125000 0.375000 0.062500
v 0.125000 0.750000 0.062500
v 0.125000 0.375000 -0.062500
v 0.125000 0.750000 -0.062500
vt 0.312500 0.500000
vt 0.312500 0.687500
vt 0.250000 0.687500
vt 0.250000 0.500000
vt 0.625000 0.500000
vt 0.625000 0.687500
vt 0.500000 0.687500
vt 0.500000 0.500000
vt 0.437500 0.687500
vt 0.437500 0.500000
vt 0.562500 0.687500
vt 0.562500 0.750000
vt 0.437500 0.750000
vt 0.437500 0.687500
vt 0.437500 0.750000
vt 0.312500 0.750000
vn -1.0000 0.0000 0.0000
vn 0.0000 0.0000 -1.0000
vn 1.0000 0.0000 0.0000
vn 0.0000 0.0000 1.0000
vn 0.0000 -1.0000 0.0000
vn 0.0000 1.0000 0.0000
usemtl Miner
s off
f 1/1/1 2/2/1 4/3/1 3/4/1
f 3/5/2 4/6/2 8/7/2 7/8/2
f 7/8/3 8/7/3 6/9/3 5/10/3
f 5/10/4 6/9/4 2/2/4 1/1/4
f 3/11/5 7/12/5 5/13/5 1/14/5
f 8/15/6 4/16/6 2/2/6 6/9/6
o Head_Cube.051
v -0.187500 0.750000 0.187500
v -0.187500 1.125000 0.187500
v -0.187500 0.750000 -0.187500
v -0.187500 1.125000 -0.187500
v 0.187500 0.750000 0.187500
v 0.187500 1.125000 0.187500
v 0.187500 0.750000 -0.187500
v 0.187500 1.125000 -0.187500
vt 0.125000 0.750000
vt 0.125000 0.875000
vt 0.000000 0.875000
vt 0.000000 0.750000
vt 0.500000 0.750000
vt 0.500000 0.875000
vt 0.375000 0.875000
vt 0.375000 0.750000
vt 0.250000 0.875000
vt 0.250000 0.750000
vt 0.375000 1.000000
vt 0.250000 1.000000
vt 0.250000 0.875000
vt 0.375000 0.875000
vt 0.250000 1.000000
vt 0.125000 1.000000
vn -1.0000 0.0000 0.0000
vn 0.0000 0.0000 -1.0000
vn 1.0000 0.0000 0.0000
vn 0.0000 0.0000 1.0000
vn 0.0000 -1.0000 0.0000
vn 0.0000 1.0000 0.0000
usemtl Miner
s off
f 9/17/7 10/18/7 12/19/7 11/20/7
f 11/21/8 12/22/8 16/23/8 15/24/8
f 15/24/9 16/23/9 14/25/9 13/26/9
f 13/26/10 14/25/10 10/18/10 9/17/10
f 11/27/11 15/28/11 13/29/11 9/30/11
f 16/31/12 12/32/12 10/18/12 14/25/12
o Left_Arm_Cube.049
v 0.125000 0.691057 0.317889
v 0.125000 0.756175 -0.051413
v 0.125000 0.567956 0.296183
v 0.125000 0.633074 -0.073119
v 0.250000 0.691057 0.317889
v 0.250000 0.756175 -0.051413
v 0.250000 0.567956 0.296183
v 0.250000 0.633074 -0.073119
vt 0.750000 0.500000
vt 0.750000 0.687500
vt 0.812500 0.687500
vt 0.812500 0.500000
vt 0.875000 0.687500
vt 0.875000 0.500000
vt 0.625000 0.500000
vt 0.625000 0.687500
vt 0.687500 0.687500
vt 0.687500 0.500000
vt 0.750000 0.687500
vt 0.750000 0.750000
vt 0.812500 0.750000
vt 0.812500 0.687500
vt 0.750000 0.687500
vt 0.750000 0.750000
vt 0.687500 0.750000
vn -1.0000 0.0000 0.0000
vn 0.0000 -0.9848 -0.1736
vn 1.0000 -0.0000 0.0000
vn 0.0000 0.9848 0.1736
vn 0.0000 -0.1736 0.9848
vn 0.0000 0.1736 -0.9848
usemtl Miner
s off
f 17/33/13 18/34/13 20/35/13 19/36/13
f 19/36/14 20/35/14 24/37/14 23/38/14
f 23/39/15 24/40/15 22/41/15 21/42/15
f 21/42/16 22/41/16 18/34/16 17/33/16
f 19/43/17 23/44/17 21/45/17 17/46/17
f 24/47/18 20/48/18 18/49/18 22/41/18
o Left_Leg_Cube.046
v 0.000000 0.000000 0.062500
v 0.000000 0.375000 0.062500
v 0.000000 0.000000 -0.062500
v 0.000000 0.375000 -0.062500
v 0.125000 0.000000 0.062500
v 0.125000 0.375000 0.062500
v 0.125000 0.000000 -0.062500
v 0.125000 0.375000 -0.062500
vt 0.125000 0.500000
vt 0.125000 0.687500
vt 0.187500 0.687500
vt 0.187500 0.500000
vt 0.250000 0.687500
vt 0.250000 0.500000
vt 0.000000 0.500000
vt 0.000000 0.687500
vt 0.062500 0.687500
vt 0.062500 0.500000
vt 0.125000 0.750000
vt 0.125000 0.687500
vt 0.187500 0.687500
vt 0.187500 0.750000
vt 0.125000 0.687500
vt 0.125000 0.750000
vt 0.062500 0.750000
vn -1.0000 0.0000 0.0000
vn 0.0000 0.0000 -1.0000
vn 1.0000 0.0000 0.0000
vn 0.0000 0.0000 1.0000
vn 0.0000 -1.0000 0.0000
vn 0.0000 1.0000 0.0000
usemtl Miner
s off
f 25/50/19 26/51/19 28/52/19 27/53/19
f 27/53/20 28/52/20 32/54/20 31/55/20
f 31/56/21 32/57/21 30/58/21 29/59/21
f 29/59/22 30/58/22 26/51/22 25/50/22
f 27/60/23 31/61/23 29/62/23 25/63/23
f 32/64/24 28/65/24 26/66/24 30/58/24
o Right_Arm_Cube.050
v -0.250000 0.686650 0.316890
v -0.250000 0.751768 -0.052413
v -0.250000 0.563549 0.295184
v -0.250000 0.628667 -0.074119
v -0.125000 0.686650 0.316890
v -0.125000 0.751768 -0.052413
v -0.125000 0.563549 0.295184
v -0.125000 0.628667 -0.074119
vt 0.687500 0.500000
vt 0.687500 0.687500
vt 0.625000 0.687500
vt 0.625000 0.500000
vt 0.875000 0.500000
vt 0.875000 0.687500
vt 0.812500 0.687500
vt 0.812500 0.500000
vt 0.750000 0.687500
vt 0.750000 0.500000
vt 0.750000 0.750000
vt 0.750000 0.687500
vt 0.812500 0.687500
vt 0.812500 0.750000
vt 0.750000 0.687500
vt 0.750000 0.750000
vt 0.687500 0.750000
vt 0.687500 0.687500
vn -1.0000 0.0000 0.0000
vn 0.0000 -0.9848 -0.1736
vn 1.0000 -0.0000 0.0000
vn 0.0000 0.9848 0.1736
vn 0.0000 -0.1736 0.9848
vn 0.0000 0.1736 -0.9848
usemtl Miner
s off
f 33/67/25 34/68/25 36/69/25 35/70/25
f 35/71/26 36/72/26 40/73/26 39/74/26
f 39/74/27 40/73/27 38/75/27 37/76/27
f 37/76/28 38/75/28 34/68/28 33/67/28
f 35/77/29 39/78/29 37/79/29 33/80/29
f 40/81/30 36/82/30 34/83/30 38/84/30
o Right_Leg_Cube.047
v -0.125000 0.000000 0.062500
v -0.125000 0.375000 0.062500
v -0.125000 0.000000 -0.062500
v -0.125000 0.375000 -0.062500
v 0.000000 0.000000 0.062500
v 0.000000 0.375000 0.062500
v 0.000000 0.000000 -0.062500
v 0.000000 0.375000 -0.062500
vt 0.062500 0.500000
vt 0.062500 0.687500
vt 0.000000 0.687500
vt 0.000000 0.500000
vt 0.250000 0.500000
vt 0.250000 0.687500
vt 0.187500 0.687500
vt 0.187500 0.500000
vt 0.125000 0.687500
vt 0.125000 0.500000
vt 0.125000 0.750000
vt 0.125000 0.687500
vt 0.187500 0.687500
vt 0.187500 0.750000
vt 0.125000 0.687500
vt 0.125000 0.750000
vt 0.062500 0.750000
vt 0.062500 0.687500
vn -1.0000 0.0000 0.0000
vn 0.0000 0.0000 -1.0000
vn 1.0000 0.0000 0.0000
vn 0.0000 0.0000 1.0000
vn 0.0000 -1.0000 0.0000
vn 0.0000 1.0000 0.0000
usemtl Miner
s off
f 41/85/31 42/86/31 44/87/31 43/88/31
f 43/89/32 44/90/32 48/91/32 47/92/32
f 47/92/33 48/91/33 46/93/33 45/94/33
f 45/94/34 46/93/34 42/86/34 41/85/34
f 43/95/35 47/96/35 45/97/35 41/98/35
f 48/99/36 44/100/36 42/101/36 46/102/36
